<?xml version="1.0" encoding="UTF-8"?>
<!DOCTYPE svg PUBLIC "-//W3C//DTD SVG 1.1//EN" "http://www.w3.org/Graphics/SVG/1.1/DTD/svg11.dtd">
<!-- Creator: CorelDRAW X8 -->
<svg xmlns="http://www.w3.org/2000/svg" xml:space="preserve" width="1133px" height="902px" version="1.1" style="shape-rendering:geometricPrecision; text-rendering:geometricPrecision; image-rendering:optimizeQuality; fill-rule:evenodd; clip-rule:evenodd"
viewBox="0 0 1133 902"
 xmlns:xlink="http://www.w3.org/1999/xlink">
 <defs>
  <style type="text/css">
   <![CDATA[
    .fil1 {fill:#18ACF4}
    .fil0 {fill:#327DFC}
   ]]>
  </style>
 </defs>
 <g id="Layer_x0020_1">
  <metadata id="CorelCorpID_0Corel-Layer"/>
  <g id="_2571472150480">
   <path class="fil0" d="M149 739c3,-2 5,-3 8,-6l23 -21c-22,-25 -45,-36 -90,-34 -80,3 -110,88 -77,140 36,55 110,54 162,22l0 -76 -61 0 1 39 17 0 0 9c-4,17 -84,14 -83,-42 0,-28 26,-49 56,-49 17,0 37,9 44,18z"/>
   <path class="fil0" d="M334 802c-6,29 -54,23 -47,-11 5,-26 55,-20 47,11zm-90 -1c0,31 29,55 63,52 16,-1 22,-9 27,-12 0,9 -1,17 -6,22 -18,19 -64,-5 -64,-5 -3,11 -11,19 -14,29 8,3 13,7 23,10 16,5 27,5 43,5 37,0 60,-27 60,-63 0,-23 1,-77 0,-96l-40 1 0 10c-8,-4 -11,-10 -28,-12 -11,-2 -23,0 -32,5 -23,11 -32,26 -32,54z"/>
   <path class="fil0" d="M613 805c-7,35 -52,25 -45,-13 5,-31 53,-24 45,13zm0 -55c-5,-3 -7,-5 -13,-7 -32,-12 -75,8 -75,56 0,67 73,69 88,50 2,2 2,6 3,8l39 0 0 -158 -42 0 0 51z"/>
   <path class="fil1" d="M1063 774c33,-10 40,45 12,51 -16,4 -27,-5 -29,-20 -3,-15 2,-26 17,-31zm-60 28c0,24 14,41 29,50 16,10 47,11 59,-3l2 5c2,4 -1,1 3,3l37 -1 0 -157 -41 1 0 50c-17,-8 -10,-10 -36,-10 -30,0 -53,26 -53,62z"/>
   <path class="fil0" d="M471 808c-7,33 -52,24 -45,-15 5,-30 54,-22 45,15zm-1 -57c-10,-6 -15,-9 -30,-10 -29,-1 -58,24 -57,63 2,63 75,67 88,46 2,3 2,3 2,9l40 -1 0 -115c-56,0 -37,-2 -43,8z"/>
   <path class="fil0" d="M703 793c-2,-12 7,-21 16,-23 13,-3 25,3 28,14l-44 9zm84 6c1,-31 -25,-59 -55,-59l-13 0c-63,0 -83,95 -15,116 23,7 60,4 74,-16 -3,-5 -15,-15 -21,-22 -10,3 -10,10 -28,9 -10,0 -20,-4 -23,-12l81 -16z"/>
   <path class="fil0" d="M878 777c3,-4 11,-23 12,-28 -20,-10 -59,-14 -81,-2 -4,2 -7,5 -10,7 -3,3 -5,5 -7,9 -9,19 -1,37 15,45 26,11 46,2 49,16 -11,14 -46,0 -58,-4 -3,5 -10,22 -12,27 45,25 120,11 107,-35 -6,-23 -31,-24 -56,-29 -19,-3 -9,-14 8,-14 14,0 23,5 33,8z"/>
   <g>
    <path class="fil0" d="M379 312c-4,-4 -5,-6 -8,-11 -7,-11 -16,-15 -13,-23 13,-35 92,-96 142,-102 2,4 21,25 25,30 -49,4 -90,38 -120,69 -15,16 -16,21 -26,37zm-70 -76c19,-35 40,-55 75,-79 14,-9 34,-20 52,-26 20,-6 20,-5 27,3 5,5 16,14 19,20 -19,4 -30,8 -47,15 -13,6 -31,16 -40,23l-26 21c-5,4 -3,4 -7,9 -23,27 -18,28 -25,37 -5,-4 -9,-9 -14,-13 -5,-4 -10,-6 -14,-10zm352 76c-7,-10 -13,-10 -20,-24 -8,-17 -11,-55 -13,-75 -1,-12 -4,-27 -4,-39 5,2 4,3 7,1 -12,-16 -24,-31 -38,-45 -17,-17 -47,-53 -71,-56 -14,-1 -24,-1 -38,0 -64,6 -129,39 -170,81 -14,13 -26,25 -39,44 -7,9 -29,42 -30,54 8,5 14,8 22,13 43,32 80,90 103,136 30,60 60,136 67,208l31 -22c12,-7 20,-12 33,-20 19,-12 47,-26 70,-35 36,-14 85,-29 125,-31 27,-1 34,2 52,2 0,-22 -4,-41 -5,-62 -10,6 -15,10 -28,13 -11,3 -26,2 -36,0 -43,-11 -69,-56 -55,-99 6,-18 22,-38 37,-44z"/>
    <path class="fil1" d="M845 100c26,5 45,-3 53,-23 6,-14 9,-57 9,-73 -12,2 -57,22 -67,27 -27,15 -27,43 -9,60 -5,11 -28,43 -32,53 3,-23 26,-55 3,-75 -10,-9 -58,-25 -73,-27 0,38 -11,83 27,94 17,5 21,0 34,-4 0,15 -7,36 -12,49 -2,7 -7,15 -10,21l-11 20c4,-27 20,-58 -4,-78 -10,-8 -54,-22 -70,-27 -2,16 2,63 7,76 3,9 11,17 19,21 16,8 22,3 36,0 0,22 -3,32 -7,50 -2,9 -8,22 -12,31l-5 9c4,-29 13,-59 -8,-78 -8,-6 -57,-24 -69,-26 0,19 5,61 11,77 6,20 28,35 55,20 1,9 1,14 0,23 -9,0 -14,-2 -25,1 -21,4 -37,19 -44,39 -19,47 32,95 78,77 53,-21 45,-86 17,-103 2,-7 6,-10 10,-14 5,8 2,15 16,28 9,7 20,13 34,7 19,-7 40,-24 56,-35 -8,-9 -43,-39 -56,-46 -33,-16 -50,27 -58,36 2,-18 30,-65 46,-71 7,22 24,43 50,34 11,-3 51,-25 57,-32 -5,-7 -19,-19 -27,-27 -46,-42 -58,-29 -92,18 2,-9 17,-37 26,-48 8,-10 16,-22 28,-28 1,24 23,45 49,39 11,-2 23,-9 32,-14 9,-4 20,-10 28,-15 -10,-13 -41,-44 -55,-51 -15,-7 -32,-1 -41,8 -7,6 -13,20 -25,28 5,-9 25,-44 31,-51z"/>
    <path class="fil1" d="M357 90c10,-4 32,-18 68,-29 25,-9 55,-13 85,-13 32,0 44,11 63,28 4,4 6,4 10,8 11,11 29,27 37,38 5,7 12,13 17,20l30 40c3,4 0,1 3,3 0,-8 -1,-15 -2,-23l-2 -46c-1,-7 -2,-16 -2,-23 17,4 32,13 49,16 -4,-17 -1,-50 -1,-70 -58,-32 -120,-47 -197,-34 -31,5 -67,18 -90,31 -21,13 -59,39 -68,54z"/>
    <path class="fil1" d="M313 438c5,10 11,18 16,26 10,16 51,59 65,64 -6,-23 -24,-70 -35,-93 -15,-31 -26,-52 -46,-82 -7,-9 -31,-42 -39,-46 -1,20 7,55 13,72 7,24 14,39 26,59z"/>
    <path class="fil1" d="M802 467c21,-28 41,-70 49,-105 2,-7 3,-18 5,-24 -19,7 -44,42 -82,35 2,10 -1,25 -4,33 -7,18 -6,7 -3,28l7 66 28 -33z"/>
    <path class="fil1" d="M566 586c5,0 24,-1 29,-2 38,-3 77,-15 110,-34 8,-4 31,-17 35,-22 -56,-3 -78,0 -136,19 -13,4 -71,28 -77,36l39 3z"/>
   </g>
   <path class="fil0" d="M195 859l41 0c0,-24 1,-98 0,-116l-41 0 0 116z"/>
   <polygon class="fil1" points="955,857 995,857 995,742 954,742 "/>
   <path class="fil1" d="M188 707c5,38 57,32 55,-4 -1,-14 -14,-26 -29,-25 -15,1 -28,14 -26,29z"/>
   <path class="fil0" d="M1002 713c10,-36 -43,-48 -52,-16 -10,37 43,49 52,16z"/>
   <path class="fil1" d="M924 857c30,0 32,-48 0,-48l-1 0c-31,-1 -34,48 1,48z"/>
  </g>
 </g>
</svg>
