<?xml version="1.0"?>
<svg xmlns="http://www.w3.org/2000/svg" xmlns:xlink="http://www.w3.org/1999/xlink" xmlns:svgjs="http://svgjs.com/svgjs" version="1.1" width="512" height="512" x="0" y="0" viewBox="0 0 112 112" style="enable-background:new 0 0 512 512" xml:space="preserve" class=""><g>
<g xmlns="http://www.w3.org/2000/svg">
	<path id="path5" d="M93.492,36.767c-10.223,0-18.51,8.3-18.51,18.536c0,0.063,0.014,0.742,0.021,0.877   c0.022,1.255-0.267,3.899-3.05,5.577c-2.792,1.685-5.335,0.824-6.567,0.191c-0.228-0.135-0.793-0.453-0.796-0.455   c-1.195-0.803-3.012-2.522-3.012-5.598c0-2.978,1.76-4.597,2.89-5.332c0.273-0.142,0.908-0.508,0.908-0.508   c5.458-3.225,9.132-9.158,9.132-15.964c0-10.236-8.287-18.536-18.51-18.536c-10.222,0-18.508,8.3-18.508,18.536   c0,6.807,3.673,12.739,9.131,15.964c0,0,0.634,0.366,0.908,0.507c1.131,0.734,2.891,2.355,2.891,5.333   c0,3.075-1.816,4.795-3.011,5.598c-0.002,0.002-1.023,0.568-1.023,0.568l0,0c-1.303,0.611-3.709,1.279-6.337-0.305   c-2.783-1.678-3.097-4.322-3.075-5.577c0.006-0.135,0.044-0.814,0.044-0.877c0-10.235-8.287-18.536-18.509-18.536   C8.287,36.767,0,45.067,0,55.303c0,10.237,8.287,18.54,18.509,18.54c3.196,0,6.022-0.711,8.646-2.139c0,0,0.718-0.428,0.985-0.59   c1.182-0.603,3.532-1.361,6.153,0.219c2.738,1.65,3.207,4.236,3.242,5.645c-0.015,0.309-0.042,0.994-0.042,0.994   c0.037,10.208,8.306,18.472,18.505,18.472c10.202,0,18.47-8.267,18.506-18.476l0.01,0.006c0,0-0.037-0.631-0.05-0.911   c0.019-1.386,0.446-4.043,3.243-5.729c2.622-1.58,4.973-0.821,6.154-0.221c0.268,0.163,0.805,0.49,0.805,0.49   c2.624,1.43,5.629,2.24,8.825,2.24c10.223,0,18.509-8.301,18.509-18.539C112,45.067,103.714,36.767,93.492,36.767L93.492,36.767z    M56,26.93c3.951,0,7.15,3.208,7.15,7.163c0,3.956-3.2,7.164-7.15,7.164s-7.152-3.208-7.152-7.164   C48.848,30.137,52.05,26.93,56,26.93z M18.512,62.468c-3.95,0-7.152-3.207-7.152-7.163s3.202-7.163,7.152-7.163   c3.95,0,7.152,3.208,7.152,7.163C25.664,59.261,22.462,62.468,18.512,62.468z M56,85.07c-3.95,0-7.152-3.208-7.152-7.164   c0-3.955,3.202-7.164,7.152-7.164s7.15,3.209,7.15,7.164C63.15,81.862,59.951,85.07,56,85.07z M93.488,62.468   c-3.95,0-7.15-3.207-7.15-7.163s3.201-7.163,7.15-7.163c3.951,0,7.152,3.208,7.152,7.163   C100.643,59.261,97.439,62.468,93.488,62.468z" fill="#fbfbfb" data-original="#000000" style="" class=""/>
</g>
<g xmlns="http://www.w3.org/2000/svg">
</g>
<g xmlns="http://www.w3.org/2000/svg">
</g>
<g xmlns="http://www.w3.org/2000/svg">
</g>
<g xmlns="http://www.w3.org/2000/svg">
</g>
<g xmlns="http://www.w3.org/2000/svg">
</g>
<g xmlns="http://www.w3.org/2000/svg">
</g>
<g xmlns="http://www.w3.org/2000/svg">
</g>
<g xmlns="http://www.w3.org/2000/svg">
</g>
<g xmlns="http://www.w3.org/2000/svg">
</g>
<g xmlns="http://www.w3.org/2000/svg">
</g>
<g xmlns="http://www.w3.org/2000/svg">
</g>
<g xmlns="http://www.w3.org/2000/svg">
</g>
<g xmlns="http://www.w3.org/2000/svg">
</g>
<g xmlns="http://www.w3.org/2000/svg">
</g>
<g xmlns="http://www.w3.org/2000/svg">
</g>
</g></svg>
