<svg id="Layer_1" height="512" viewBox="0 0 512 512" width="512" xmlns="http://www.w3.org/2000/svg" data-name="Layer 1"><path d="m451.49 411.41a15.7 15.7 0 0 1 -3.16 11.84l-9.31 11.91-19.11.5a6.374 6.374 0 0 1 -5.39-10.29l9.31-11.91a15.7 15.7 0 0 0 3.16-11.84c-1.5-10.58-49.82-38.94-62.18-75.14q6.195-2 12.45-4.39l.01-.01a51.6 51.6 0 0 0 15.36 13.05c13.31 7.5 40.48 34.91 43.48 37.43 9.83 8.25 13.88 28.27 15.38 38.85z" fill="#aaa"/><path d="m221.34 330.61a180 180 0 0 0 21.02 4.48c-23.02 31.26-32.91 52.29-30.94 90.03.28 5.26 3.62 10.91 6.25 15.48a7.284 7.284 0 0 1 -5.86 10.92l-21.58-1.13a27.133 27.133 0 0 1 -3.6-15.04c.97-17.74 3.75-59.99 26.77-91.25a72.668 72.668 0 0 0 7.94-13.49z" fill="#aaa"/><path d="m131.83 99.31a3.251 3.251 0 0 1 2.13 3.64c-1.07 7.09-20.38 24.13-50.98 17.26a16.459 16.459 0 0 0 6.97-15.51s25.74-10.16 41.88-5.39z" fill="#c9af93"/><path d="m89.95 104.7a16.459 16.459 0 0 1 -6.97 15.51c-8.72 6.15-22.63 19.78-21.37 48.85-5.89-3.8-15.3-9.43-18.3-10.92-5.36-2.67-11.96-2.7-17.15-2.08a11.642 11.642 0 0 1 -12.14-7.08c-.62-1.49-1.29-3.06-1.99-4.6a11.616 11.616 0 0 1 1.11-11.51l25.47-38.33c3.87 4.63 11.42 6.7 25.95.22a22.126 22.126 0 0 1 12.67-1.76c5.44.93 11.65 3.76 12.72 11.7z" fill="#a0a0a0"/><path d="m138.7 309.42c-35.93-21.02-40.41-40.15-48.01-75.35-4.4-20.37-16.27-55.62-24.89-62.17-.86-.65-2.35-1.65-4.19-2.84-1.26-29.07 12.65-42.7 21.37-48.85 30.6 6.87 49.91-10.17 50.98-17.26a3.251 3.251 0 0 0 -2.13-3.64c-16.14-4.77-41.88 5.39-41.88 5.39-1.07-7.94-7.28-10.77-12.72-11.7a22.126 22.126 0 0 0 -12.67 1.76c-14.53 6.48-22.08 4.41-25.95-.22a15.676 15.676 0 0 1 -2.9-5.78 21.663 21.663 0 0 1 3.75-18.86c11.1-14.73 43.52-31.24 90.59-6.54 69.37 36.42 59.52 78.39 188.12 70.24 73.59-4.67 113.99 8.02 136.12 29.41a22.665 22.665 0 0 0 7.32 4.68c10.04 4.01 35.05 17.51 39.38 53.63a1.653 1.653 0 0 1 -2.94 1.21c-10.32-13.17-24.72-28.18-25.17-28.65a108.472 108.472 0 0 1 6.6 28.07c2.84 26.9 2.71 45.45-2.13 58.71-6.54 17.93-6.39 37.73 1.55 55.09 3.85 8.4 6.06 17.36 3.83 25.13-5.47 19-8.38 69.52-8.38 69.52l2.38 8.85a3.7 3.7 0 0 1 -3.36 4.65l-28.96 1.55a6.374 6.374 0 0 1 -5.39-10.29l9.31-11.91a15.7 15.7 0 0 0 3.16-11.84c-1.5-10.58-5.55-30.6-15.38-38.85-3-2.52-30.17-29.93-43.48-37.43a51.6 51.6 0 0 1 -15.36-13.05l-.01.01q-6.255 2.4-12.45 4.39c-50.2 16.15-96.68 12.77-122.45 8.61a180 180 0 0 1 -21.02-4.48 72.668 72.668 0 0 1 -7.94 13.49c-23.02 31.26-25.8 73.51-26.77 91.25a27.133 27.133 0 0 0 3.6 15.04 5.467 5.467 0 0 1 .74 2.75c0 3.96-4.18 7.88-8.56 8.17l-34.58-1.14a3.593 3.593 0 0 1 -2.61-5.92s12.4-13.75 13.38-20.13c2.88-18.73 13.28-61.15-3.96-86.27-8.57-12.49-13.33-26.17-15.94-38.43z" fill="#d1d1d1"/><path d="m47.158 146.06a11.642 11.642 0 0 1 -12.14-7.08c-.62-1.49-1.29-3.06-1.99-4.6a11.616 11.616 0 0 1 1.11-11.51l15.99-24.064c-5.6.317-9.217-1.513-11.518-4.266l-25.47 38.33a11.616 11.616 0 0 0 -1.11 11.51c.7 1.54 1.37 3.11 1.99 4.6a11.642 11.642 0 0 0 12.14 7.08c5.19-.62 11.79-.59 17.15 2.08 3 1.49 12.41 7.12 18.3 10.92a68.883 68.883 0 0 1 2.125-21.184c-5.252-2.4-11.569-2.414-16.577-1.816z" fill="#afafaf"/><g fill="#e1dee0"><path d="m190.472 450.883a15 15 0 0 1 -13.37-20.726l2.5-6.037c2.88-18.73 13.28-61.15-3.96-86.27-8.57-12.49-13.33-26.17-15.94-38.43-35.93-21.02-40.41-40.15-48.01-75.35-4.4-20.37-16.27-55.62-24.89-62.17-.86-.65-2.35-1.65-4.19-2.84-.758-17.5 3.98-29.394 9.774-37.44a65.683 65.683 0 0 1 -9.4-1.41c-8.72 6.15-22.63 19.78-21.37 48.85 1.84 1.19 3.33 2.19 4.19 2.84 8.62 6.55 20.49 41.8 24.89 62.17 7.6 35.2 12.08 54.33 48.01 75.35 2.61 12.26 7.37 25.94 15.94 38.43 17.24 25.12 6.84 67.54 3.96 86.27-.98 6.38-13.38 20.13-13.38 20.13a3.593 3.593 0 0 0 2.61 5.92l34.58 1.14c4.38-.29 8.56-4.21 8.56-8.17a5.445 5.445 0 0 0 -.504-2.257z"/><path d="m68.74 93.347a16.868 16.868 0 0 1 -2.032-4.587 21.663 21.663 0 0 1 3.75-18.86c5.265-6.987 15.33-14.371 29.476-17.571-30.758-6.152-51.934 6.235-60.474 17.571a21.663 21.663 0 0 0 -3.75 18.86 15.676 15.676 0 0 0 2.9 5.78c3.87 4.63 11.42 6.7 25.95.22a24.2 24.2 0 0 1 4.18-1.413z"/></g></svg>