<svg id="Layer_1" height="512" viewBox="0 0 512 512" width="512" xmlns="http://www.w3.org/2000/svg" data-name="Layer 1"><path d="m430.46 429.55c4.97 14.46-9.31 20.24-20.54 37.43l-7.68-.39a27.634 27.634 0 0 1 -12.67-3.8 3.706 3.706 0 0 1 -1.82-3.21 3.651 3.651 0 0 1 .94-2.46c9.15-10.13 19.1-22.22 17.23-34.17-6.52-41.49 9.47-52.9-29.33-89.15a69.76 69.76 0 0 0 10.06 5.49c11.87 5.3 31.17 10.51 37.45 21.88 12.66 22.97 0 49.84 6.36 68.38z" fill="#8e857d"/><path d="m214.64 433.76a5.01 5.01 0 0 1 -1.47 3.9l-7.45 8.87a6.19 6.19 0 0 0 -1.3 2.55l-3.05 12.53a6.271 6.271 0 0 1 -6.64 4.76l-21.17-1.47 1.46-6.02a6.19 6.19 0 0 1 1.3-2.55l7.45-8.87a6.278 6.278 0 0 0 1.47-3.9c.19-8.46-.27-80.38 14.46-108.77a36.5 36.5 0 0 0 1.8-4.16q1.365-3.69 2.44-7.16 8.535 3.345 16.9 6c-15.04 41.81-10.41 81.71-6.2 104.29z" fill="#8e857d"/><path d="m458.9 250.28c54.15-28.89 40.59-65.57 40.59-65.57-7.22 21.65-40.43 27.21-51 28.44a7.305 7.305 0 0 1 -5.48-1.57c-44.16-36.04-103.47-16.41-190.77-14.52-88.79 1.93-110.81-94.62-110.81-94.62-4.75-18.16-16.65-27.17-25.73-31.48a7.009 7.009 0 0 1 -1.9-11.26c8.01-8.17 25.22-18.91 58.79-15.12-50.97-35.01-78.37 7.96-85.01 18.63a4.679 4.679 0 0 1 -3.67 2.19c-16.52 1.13-23.63 10.96-28.05 18.86a45.255 45.255 0 0 1 -14.14 15.18 49.306 49.306 0 0 0 -16.06 18.73 21.072 21.072 0 0 1 -7.08 8.16c-6.82 4.57-9.66 10.68-5.92 21.66 3.23 9.52 11.47 9.17 16.75 7.8a21.2 21.2 0 0 1 16.42 2.55 33.992 33.992 0 0 1 10.22 9.92 3.771 3.771 0 0 0 5.83.58 23.063 23.063 0 0 0 6.88-17.34s7.38 1.7 13.93-.04a57.6 57.6 0 0 0 2.29 11.18 7.484 7.484 0 0 0 10.28 4.63s21.78 18.52 18.91 57.46c-3.78 51.1 18.81 89.03 32.85 105.77 5.54 6.61 8.28 14.54 9.88 23.02 1.01 5.4 1.39 11.05 3.03 14.11 3.74 7.01-6.98 86.08-15.87 96.37l-7.86 7.97a1.57 1.57 0 0 0 1.06 2.59l28.07 1.61a6.271 6.271 0 0 0 6.64-4.76l1.59-6.51 1.46-6.02a6.19 6.19 0 0 1 1.3-2.55l7.45-8.87a6.278 6.278 0 0 0 1.47-3.9c.19-8.46-.27-80.38 14.46-108.77a36.5 36.5 0 0 0 1.8-4.16q1.365-3.69 2.44-7.16 8.535 3.345 16.9 6c86.21 27.58 155.73 4.32 155.73 4.32s.01.01.02.01a69.76 69.76 0 0 0 10.06 5.49c11.87 5.3 31.17 10.51 37.45 21.88 12.66 22.97 0 49.84 6.36 68.38 4.97 14.46-9.31 20.24-20.54 37.43a68.384 68.384 0 0 0 -6.31 12.13l37.69 1.79a6.115 6.115 0 0 0 5.84-8.68l-2.56-5.51a6.11 6.11 0 0 1 3.73-8.41l4.43-1.37a6.123 6.123 0 0 0 4.28-5.3l5.89-66.1a50.514 50.514 0 0 0 -5.61-27.99l-.6-1.14a67.885 67.885 0 0 1 -4.92-50.28c5.46-19.18 4.27-39.5 3.3-48.62a7.322 7.322 0 0 1 3.82-7.22z" fill="#bbafa4"/><path d="m87.58 63.21a4.679 4.679 0 0 1 -3.67 2.19c-16.52 1.13-23.63 10.96-28.05 18.86a45.255 45.255 0 0 1 -14.14 15.18 49.306 49.306 0 0 0 -16.06 18.73 21.072 21.072 0 0 1 -7.08 8.16c-6.82 4.57-9.66 10.68-5.92 21.66 3.23 9.52 11.47 9.17 16.75 7.8.493-.127.992-.213 1.491-.3.49-10.894 11.773-25.2 17.679-29.157a21.072 21.072 0 0 0 7.08-8.16 49.306 49.306 0 0 1 16.06-18.733 45.255 45.255 0 0 0 14.14-15.18c4.227-7.56 10.94-16.86 25.967-18.643a7.058 7.058 0 0 1 1.973-5.917 47.13 47.13 0 0 1 13.1-9.29c5.658-6.454 13.553-13.309 23.784-16.861-37.017-11.492-57.484 20.636-63.104 29.661z" fill="#cec3ba"/><path d="m189.93 367.63c-1.64-3.06-2.02-8.71-3.03-14.11-1.6-8.48-4.34-16.41-9.88-23.02-14.04-16.74-36.63-54.67-32.85-105.77 2.87-38.94-18.91-57.46-18.91-57.46l-2.747-3.455a15.5 15.5 0 0 0 -22-2.313l-7.793 6.427a7.427 7.427 0 0 0 2.54-.659s21.78 18.52 18.91 57.46c-3.78 51.1 18.81 89.03 32.85 105.77 5.54 6.61 8.28 14.54 9.88 23.02 1.01 5.4 1.39 11.05 3.03 14.11 3.74 7.01-6.98 86.08-15.87 96.37l-7.86 7.97a1.57 1.57 0 0 0 1.06 2.59l28.07 1.61a6.233 6.233 0 0 0 4.561-1.459l-2.631-.151a1.57 1.57 0 0 1 -1.06-2.59l7.486-7.591 1.334-5.5a6.19 6.19 0 0 1 1.3-2.55l2.327-2.77c2.537-8.283 5-20.1 7.033-32.356.506-14.91 1.684-34.782 4.553-52.728a3.827 3.827 0 0 0 -.303-.845z" fill="#cec3ba"/><path d="m127.488 107.931a16.352 16.352 0 0 0 -13.177-15.254l-21.274-4.194a6 6 0 0 0 -3.009 7.934 12.066 12.066 0 0 1 -1.092 11.915c-7.032 9.869-17.642 30.278-9.69 56.075a13.464 13.464 0 0 0 18.534 8.3c16.41-7.6 26.488-23.66 29.145-46.448a113.08 113.08 0 0 0 .563-18.328z" fill="#8e857d"/></svg>