<svg id="Layer_1" height="512" viewBox="0 0 512 512" width="512" xmlns="http://www.w3.org/2000/svg" data-name="Layer 1"><path d="m490.21 407.93a9.269 9.269 0 0 1 9.87 13.12c-11.22 23.38-38.35 62.01-88.34 36.97a8.846 8.846 0 0 1 7.08-4.04c5.86-.27 16.79-2.19 28.14-11.55a59.274 59.274 0 0 0 19.48-30.67z" fill="#9e9e9e"/><path d="m109.03 152.51a18.244 18.244 0 0 0 -.41-2.4c-2.21-9.25-8.86-21.56-13.74-40.49-13.33-51.77-4.2-107.42 40.97-43.45-30.64 32.51-27.21 81.79-26.82 86.34z" fill="#b2b2b2"/><path d="m212.73 423.21c-15.96 18.73-30.63 35.61-37.53 43.53a13.9 13.9 0 0 1 -10.47 4.76h-38.83s-4.02-16.61 25.8-22.24a20.677 20.677 0 0 0 14.41-10.68c4.39-8.31 6.11-19 6.58-28.95h-.01c-40.64-21.78-75.21-43.6-81.1-82.8-2.56-17.08 1.8-53.71-23.3-44.76-20.56 7.34-34.26-1.77-38.53-5.3a6.7 6.7 0 0 0 -3.37-1.47c-6.5-.9-26.18-6.1-7.59-35.84 8.72-13.95 13.61-22.52 17.41-26.71a43.246 43.246 0 0 0 7.24-10.89c4.38-9.45 14.89-26 35.53-28.26 5.31-.58 10.31-1.17 14.78-1.77a17.714 17.714 0 0 0 15.31-18.98s-.01-.12-.03-.34c-.39-4.55-3.82-53.83 26.82-86.34a84.6 84.6 0 0 1 33.2-21.53 6.9 6.9 0 0 1 8.81 3.94c6.32 16.07 18.76 62.8-23.75 112.43 0 0-17.77 15.9.37 31.07 10.84 9.06 14.64 21.42 15.94 29.9a6.934 6.934 0 0 0 8.74 5.58c9.73-2.71 33.49 1.9 48.16 16.03a4.823 4.823 0 0 0 5.53.86c7.92-4 31.72-13.98 77.88-17.48 37.43-2.83 168.94 9.93 157.62 173.25a61.927 61.927 0 0 1 -1.91 11.54 59.274 59.274 0 0 1 -19.48 30.67c-11.35 9.36-22.28 11.28-28.14 11.55a8.846 8.846 0 0 0 -7.08 4.04l-4.67 11.39a8.771 8.771 0 0 1 -7.05 4.04l-153.78 1.07c-8.23.28-13.4-2.55-6.33-15.4 5.96-10.83 18.92-11.4 24.46-11.11a62.767 62.767 0 0 0 6.72.03l52.71-2.8a167.625 167.625 0 0 1 -11.84-27.45c-4.84 3.39-19.35 11.69-46.53 12.52-35.18 1.07-52.7-7.1-52.7-7.1z" fill="#c8c6ca"/><g fill="#dbd9dd"><path d="m178.513 395.152q-.687-.451-1.4-.88c-28.83-17.41-50.936-36.817-55.538-67.442-2.56-17.08 1.8-53.71-23.3-44.76a45.674 45.674 0 0 1 -14.162 2.765c7.234 8.939 5.688 30.159 7.462 42 5.89 39.2 40.46 61.02 81.1 82.8h.01c-.47 9.95-2.19 20.64-6.58 28.95a20.677 20.677 0 0 1 -14.41 10.68c-29.82 5.63-25.8 22.24-25.8 22.24h30l25.054-20.667c17.897-14.765 16.932-42.925-2.436-55.686z"/><path d="m59.75 276.77a6.7 6.7 0 0 0 -3.37-1.47c-6.5-.9-26.18-6.1-7.59-35.84 8.72-13.95 13.61-22.52 17.41-26.71a43.246 43.246 0 0 0 7.24-10.89c4.38-9.45 14.89-26 35.53-28.26 5.31-.58 10.31-1.17 14.78-1.77a17.714 17.714 0 0 0 15.31-18.98s-.01-.12-.03-.34c-.39-4.55-3.82-53.83 26.82-86.34a81.777 81.777 0 0 1 14.029-11.87c-.694-2.192-1.387-4.111-2.019-5.718a6.9 6.9 0 0 0 -8.81-3.94 84.6 84.6 0 0 0 -33.2 21.53c-30.64 32.51-27.21 81.79-26.82 86.34.02.22.03.34.03.34a17.714 17.714 0 0 1 -15.31 18.98c-4.47.6-9.47 1.19-14.78 1.77-20.64 2.26-31.15 18.81-35.53 28.26a43.246 43.246 0 0 1 -7.24 10.89c-3.8 4.19-8.69 12.76-17.41 26.71-18.59 29.738 1.09 34.938 7.59 35.838a6.7 6.7 0 0 1 3.37 1.47c4.27 3.53 17.97 12.64 38.53 5.3.084-.03.165-.054.249-.083a35.1 35.1 0 0 1 -8.779-5.217z"/></g></svg>