<svg id="Layer_1" height="512" viewBox="0 0 512 512" width="512" xmlns="http://www.w3.org/2000/svg" data-name="Layer 1"><path d="m418.39 306.44c-1.08 3.79-4.63 17.08-4.68 20.31-.4 27.93-11.35 35.37-14.2 49.1a27.553 27.553 0 0 0 .79 13.81l.68 2.16a9.329 9.329 0 0 1 -9.01 12.09l-30.68-.24a4.79 4.79 0 0 1 -3.59-7.94 200.139 200.139 0 0 1 16.71-16.8c16.3-14.69 8.2-33.11 11.93-51.5 2.01-9.87-4.6-35.36-8.29-51.25 16.91-7.08 26.81-15.97 26.81-15.97a66.113 66.113 0 0 1 8.63 25 104.912 104.912 0 0 0 4.9 21.23z" fill="#545860"/><path d="m266.8 313.26c4.02 27.64-5.62 36.71-6.26 50.71a27.617 27.617 0 0 0 2.96 13.52l1.01 2.03a9.3 9.3 0 0 1 -6.99 13.34l-30.32 4.57a4.8 4.8 0 0 1 -4.81-7.28 201.011 201.011 0 0 1 13.84-19.21c13.78-17.06 2.87-33.97 3.65-52.72.41-10.07-6.14-28.71-12.29-43.82h-.01c.27-.75.54-1.5.8-2.26 0 0 18.12-5.4 44.93-.92-3.21 16.3-8.06 31.41-6.51 42.04z" fill="#545860"/><path d="m404.86 260.21s-9.9 8.89-26.81 15.97c-19.07 7.98-47.07 13.66-79.84 1.65a137.532 137.532 0 0 0 -24.9-6.61c-26.81-4.48-44.93.92-44.93.92-.26.76-.53 1.51-.8 2.26-5.78 16.13-13.33 30.8-13.47 41.84-.35 27.93-11.29 35.39-14.11 49.12a27.591 27.591 0 0 0 .81 13.82l.69 2.16a9.323 9.323 0 0 1 -8.99 12.1l-30.67-.18a4.787 4.787 0 0 1 -3.61-7.93 199.382 199.382 0 0 1 16.67-16.84c16.28-14.72 8.14-33.12 11.84-51.52 1.5-7.46-.16-20.38-2.67-33.1-17.06-21.62-39.42-29.95-51.57-18.56a25.042 25.042 0 0 1 -23.8 6.28 1.8 1.8 0 0 0 -2.22 1.54c-1.44 11.53-15.71 47.43-31.94 56.4-8.28 4.58-18.37 21.58-18.37 21.58h-.02c.24 6.23-2.47 12.81-12.01 17.57-22.86 11.41-30.18-8.69-32.39-19.26a29.221 29.221 0 0 1 -.35-9.87c1.68-12.76 8.82-15.73.24-76.92-2.52-17.98 2.69-27.65 9.92-33.54a47.591 47.591 0 0 1 12.45-6.9 43.5 43.5 0 0 1 19.47-2.87c11.12.78 36.44-3.73 30.66-62.74 0 0 16.46 15.96 20.6 35.68 70.68-15.56 70.22-125.8 161.39-105.2 0 0 67.42 9.64 123.38 2.96 42.85-5.12 48.42 23.69 86.04 44.73 0 0 43.08 21.51 17.14 130a12.411 12.411 0 0 0 .59 7.35c10.5 27.13-6.39 57.31-6.9 58.21.11-.5 2.28-10.32-4.55-28.91a51.4 51.4 0 0 1 -.46-33.96 14.323 14.323 0 0 0 .67-2.73c8.34-61.67-.81-97.89-1.22-99.44 8.09 43.87-12.13 73.71-12.13 73.71s-10.32 16.6-4.82 46.23c5.94 32.01-.5 43.6-.5 58.73 0 18.83-9.82 30.3-16.14 44.32-3.28 7.26-3.74 12.4-1.29 19.98l.94 2.89c.49 1.51-.65 16.37-2.24 16.37h-41.85a2.339 2.339 0 0 1 -1.71-3.95c3.27-3.42 3.87-8.4 12.36-12.24 14.31-6.47 10.26-34.45 14.97-67.37 3.23-22.62-3.89-20.65-10.02-37.5a104.912 104.912 0 0 1 -4.9-21.23 66.113 66.113 0 0 0 -8.63-25z" fill="#676d77"/><path d="m53.48 219.32a43.5 43.5 0 0 0 -19.47 2.87 47.591 47.591 0 0 0 -12.45 6.9s-.84-56.71 36.87-78.38c0 0-20.79 53.01-4.95 68.61z" fill="#545860"/><g fill="#7e8791"><path d="m31.75 361.42a29.221 29.221 0 0 1 -.35-9.87c1.68-12.76 8.82-15.73.24-76.92-2.52-17.98 2.69-27.65 9.92-33.54a47.591 47.591 0 0 1 12.45-6.9 43.5 43.5 0 0 1 19.47-2.87c9.4.659 28.936-2.463 31.274-39.064h-.014c-4.14-19.72-20.6-35.68-20.6-35.68 5.78 59.01-19.54 63.52-30.66 62.74a43.5 43.5 0 0 0 -19.47 2.87 47.591 47.591 0 0 0 -12.45 6.9c-7.23 5.89-12.44 15.56-9.92 33.54 8.58 61.19 1.44 64.16-.24 76.92a29.221 29.221 0 0 0 .35 9.87c1.887 9.028 7.511 24.99 23.351 22.353a47.949 47.949 0 0 1 -3.351-10.349z"/><path d="m124.74 204.26c70.68-15.56 70.22-125.8 161.39-105.2 0 0 67.42 9.64 123.38 2.96 11.029-1.318 19.578-.376 26.849 2.091-12.027-10.054-24.259-16.791-46.849-14.091-55.96 6.68-123.38-2.96-123.38-2.96-84.878-19.179-90.348 75.034-147.73 100.686a60.693 60.693 0 0 1 6.34 16.514z"/></g></svg>